<svg width="137" height="61" viewBox="0 0 137 61" fill="none" xmlns="http://www.w3.org/2000/svg">
<g id="Group 48096048">
<g id="Product name">
<path id="Vector" d="M133.822 35.4023V38.7116H129.329V52.3593H125.198V38.7116H120.706V35.4023H133.822Z" fill="#E3F5EE"/>
<path id="Vector_2" d="M112.173 52.5284C110.933 52.5284 109.822 52.3271 108.84 51.9246C107.857 51.522 107.068 50.9261 106.473 50.1371C105.893 49.348 105.587 48.3979 105.555 47.2868H109.951C110.015 47.9148 110.233 48.3979 110.603 48.7361C110.973 49.0581 111.457 49.2192 112.052 49.2192C112.664 49.2192 113.147 49.0823 113.502 48.8085C113.856 48.5187 114.033 48.1241 114.033 47.6249C114.033 47.2063 113.888 46.86 113.598 46.5863C113.325 46.3125 112.978 46.0871 112.56 45.9099C112.157 45.7328 111.577 45.5315 110.82 45.306C109.725 44.9679 108.832 44.6297 108.139 44.2915C107.447 43.9534 106.851 43.4542 106.352 42.7939C105.853 42.1337 105.603 41.2721 105.603 40.2093C105.603 38.6312 106.175 37.3993 107.318 36.5136C108.461 35.6118 109.951 35.1609 111.787 35.1609C113.655 35.1609 115.16 35.6118 116.304 36.5136C117.447 37.3993 118.059 38.6392 118.139 40.2335H113.671C113.639 39.686 113.437 39.2592 113.067 38.9532C112.697 38.6312 112.221 38.4701 111.642 38.4701C111.143 38.4701 110.74 38.607 110.434 38.8808C110.128 39.1384 109.975 39.5169 109.975 40.0161C109.975 40.5636 110.233 40.9903 110.748 41.2963C111.263 41.6023 112.068 41.9324 113.164 42.2867C114.259 42.657 115.144 43.0113 115.821 43.3495C116.513 43.6877 117.109 44.1788 117.608 44.8229C118.107 45.4671 118.357 46.2964 118.357 47.3109C118.357 48.2771 118.107 49.1548 117.608 49.9438C117.125 50.7329 116.416 51.3609 115.482 51.8279C114.548 52.2949 113.445 52.5284 112.173 52.5284Z" fill="#E3F5EE"/>
<path id="Vector_3" d="M94.3441 52.5284C92.7499 52.5284 91.2844 52.1581 89.9479 51.4173C88.6274 50.6765 87.5726 49.6459 86.7835 48.3254C86.0106 46.9889 85.6241 45.4912 85.6241 43.8326C85.6241 42.1739 86.0106 40.6844 86.7835 39.3639C87.5726 38.0434 88.6274 37.0128 89.9479 36.272C91.2844 35.5313 92.7499 35.1609 94.3441 35.1609C95.9383 35.1609 97.3957 35.5313 98.7162 36.272C100.053 37.0128 101.099 38.0434 101.856 39.3639C102.629 40.6844 103.016 42.1739 103.016 43.8326C103.016 45.4912 102.629 46.9889 101.856 48.3254C101.083 49.6459 100.037 50.6765 98.7162 51.4173C97.3957 52.1581 95.9383 52.5284 94.3441 52.5284ZM94.3441 48.7602C95.6968 48.7602 96.7757 48.3093 97.5809 47.4075C98.4022 46.5058 98.8128 45.3141 98.8128 43.8326C98.8128 42.335 98.4022 41.1433 97.5809 40.2576C96.7757 39.3558 95.6968 38.9049 94.3441 38.9049C92.9753 38.9049 91.8803 39.3478 91.059 40.2335C90.2538 41.1192 89.8512 42.3189 89.8512 43.8326C89.8512 45.3302 90.2538 46.5299 91.059 47.4317C91.8803 48.3174 92.9753 48.7602 94.3441 48.7602Z" fill="#E3F5EE"/>
<path id="Vector_4" d="M74.6296 52.5284C73.0353 52.5284 71.5699 52.1581 70.2333 51.4173C68.9129 50.6765 67.8581 49.6459 67.069 48.3254C66.2961 46.9889 65.9096 45.4912 65.9096 43.8326C65.9096 42.1739 66.2961 40.6844 67.069 39.3639C67.8581 38.0434 68.9129 37.0128 70.2333 36.272C71.5699 35.5313 73.0353 35.1609 74.6296 35.1609C76.2238 35.1609 77.6812 35.5313 79.0017 36.272C80.3382 37.0128 81.385 38.0434 82.1418 39.3639C82.9148 40.6844 83.3013 42.1739 83.3013 43.8326C83.3013 45.4912 82.9148 46.9889 82.1418 48.3254C81.3689 49.6459 80.3221 50.6765 79.0017 51.4173C77.6812 52.1581 76.2238 52.5284 74.6296 52.5284ZM74.6296 48.7602C75.9823 48.7602 77.0612 48.3093 77.8664 47.4075C78.6876 46.5058 79.0983 45.3141 79.0983 43.8326C79.0983 42.335 78.6876 41.1433 77.8664 40.2576C77.0612 39.3558 75.9823 38.9049 74.6296 38.9049C73.2608 38.9049 72.1658 39.3478 71.3445 40.2335C70.5393 41.1192 70.1367 42.3189 70.1367 43.8326C70.1367 45.3302 70.5393 46.5299 71.3445 47.4317C72.1658 48.3174 73.2608 48.7602 74.6296 48.7602Z" fill="#E3F5EE"/>
<path id="Vector_5" d="M60.2293 43.6634C61.2116 43.8727 62.0007 44.3639 62.5965 45.1369C63.1923 45.8937 63.4902 46.7633 63.4902 47.7456C63.4902 49.1627 62.991 50.29 61.9926 51.1273C61.0103 51.9486 59.6335 52.3593 57.8621 52.3593H49.9634V35.4023H57.5964C59.3195 35.4023 60.6641 35.7969 61.6303 36.5859C62.6126 37.375 63.1038 38.4459 63.1038 39.7986C63.1038 40.797 62.8381 41.6263 62.3066 42.2866C61.7913 42.9468 61.0989 43.4057 60.2293 43.6634ZM54.0939 42.2624H56.7993C57.4756 42.2624 57.9909 42.1175 58.3452 41.8276C58.7156 41.5216 58.9008 41.0788 58.9008 40.4991C58.9008 39.9194 58.7156 39.4765 58.3452 39.1705C57.9909 38.8646 57.4756 38.7116 56.7993 38.7116H54.0939V42.2624ZM57.1374 49.0258C57.8299 49.0258 58.3613 48.8729 58.7317 48.5669C59.1182 48.2448 59.3114 47.7859 59.3114 47.1901C59.3114 46.5942 59.1101 46.1272 58.7075 45.7891C58.321 45.4509 57.7816 45.2818 57.0891 45.2818H54.0939V49.0258H57.1374Z" fill="#E3F5EE"/>
</g>
<path id="Vector 965" d="M22.9356 57.4671L6.37798 57.6741L8.03342 47.7589L3.37117 41.427L6.07866 42.0801L5.14443 39.9873L2.57538 29.9233L10.2378 18.5236L10.2157 24.7797L11.7321 26.8842L15.6756 20.1657L29.9396 17.7197L30.8516 14.8106L28.7184 7.82146L39.0715 18.6162L35.2115 28.472L35.7329 33.0213L38.8564 28.2431L39.3943 39.3129L30.5578 50.7011L34.6023 51.6196L22.9356 57.4671Z" fill="#97F312"/>
<path id="Vector 966" d="M24.9227 11.758C25.8387 12.9912 27.6548 15.7326 27.7267 15.8756L18.3198 10.4315L20.5996 5.14698L26.7184 0.727215L24.2727 6.9736L24.9227 11.758Z" fill="#97F312"/>
<path id="Vector 961" d="M22.8176 29.3111L20.0805 31.0719L18.061 29.7408L17.274 29.0027L15.9645 22.0108L20.1428 27.5208L23.1831 19.9551L25.2664 27.3565L27.7171 24.1655L30.9714 22.2925L28.2396 30.2995L22.8176 29.3111Z" fill="#040A09"/>
<path id="Subtract" fill-rule="evenodd" clip-rule="evenodd" d="M17.6577 33.8302L22.9006 30.7175L28.1851 31.5901L29.5788 34.1157L29.4508 32.024L33.4391 35.7333L32.4656 42.0521L26.4494 49.8664L18.2983 53.6226L11.018 53.6157L12.9349 44.7354L10.7796 41.383L9.83217 35.1411L14.775 30.2737L18.8494 31.6026L17.6577 33.8302ZM22.1487 35.174L19.0463 39.3374L22.5487 40.3005L25.104 39.932L27.5155 38.6205L27.4665 35.6961C27.4837 35.5151 26.6176 34.1505 26.1824 33.4909L22.1487 35.174ZM14.6071 38.9016L16.8397 39.4746L16.7907 39.9905L15.7639 40.6904L14.9535 40.9421L13.7709 40.826L12.6125 40.1325L12.0541 38.651L12.0291 37.5426L14.6071 38.9016ZM13.403 42.5393L11.9393 41.3815L13.7494 43.8824L14.3313 43.4334L14.6494 45.4082L16.8316 48.3378L17.7012 46.6343L18.4345 48.4952L20.8054 48.7279L21.2743 46.985L22.8424 48.9279L25.9697 46.5195L27.3873 43.6597L28.7515 41.3619L29.5659 42.3683L31.983 36.7915L29.403 40.18L28.6737 39.3417L26.0226 42.7687L23.9554 43.5752L22.1771 44.2036L22.0119 42.375L19.4224 42.8779L16.6886 42.8619L16.5483 44.3394L15.1547 43.7208L14.3028 41.9852L13.403 42.5393Z" fill="#040A09"/>
<g id="Product name_2">
<path id="Vector_6" d="M130.441 29.2853C129.201 29.2853 128.09 29.084 127.108 28.6814C126.125 28.2788 125.336 27.683 124.74 26.8939C124.161 26.1048 123.855 25.1547 123.823 24.0436H128.219C128.283 24.6716 128.501 25.1547 128.871 25.4929C129.241 25.815 129.724 25.976 130.32 25.976C130.932 25.976 131.415 25.8391 131.77 25.5654C132.124 25.2755 132.301 24.881 132.301 24.3818C132.301 23.9631 132.156 23.6169 131.866 23.3431C131.592 23.0693 131.246 22.8439 130.827 22.6668C130.425 22.4896 129.845 22.2883 129.088 22.0629C127.993 21.7247 127.1 21.3865 126.407 21.0484C125.715 20.7102 125.119 20.211 124.62 19.5507C124.12 18.8905 123.871 18.029 123.871 16.9661C123.871 15.388 124.442 14.1561 125.586 13.2704C126.729 12.3686 128.219 11.9177 130.055 11.9177C131.923 11.9177 133.428 12.3686 134.572 13.2704C135.715 14.1561 136.327 15.3961 136.407 16.9903H131.939C131.906 16.4428 131.705 16.016 131.335 15.7101C130.964 15.388 130.489 15.227 129.91 15.227C129.41 15.227 129.008 15.3639 128.702 15.6376C128.396 15.8953 128.243 16.2737 128.243 16.7729C128.243 17.3204 128.501 17.7472 129.016 18.0531C129.531 18.3591 130.336 18.6892 131.431 19.0435C132.526 19.4139 133.412 19.7681 134.088 20.1063C134.781 20.4445 135.377 20.9356 135.876 21.5798C136.375 22.2239 136.625 23.0532 136.625 24.0678C136.625 25.034 136.375 25.9116 135.876 26.7007C135.393 27.4897 134.684 28.1178 133.75 28.5848C132.816 29.0518 131.713 29.2853 130.441 29.2853Z" fill="#E3F5EE"/>
<path id="Vector_7" d="M112.611 29.2853C111.017 29.2853 109.552 28.9149 108.215 28.1741C106.895 27.4334 105.84 26.4028 105.051 25.0823C104.278 23.7457 103.891 22.2481 103.891 20.5894C103.891 18.9308 104.278 17.4412 105.051 16.1207C105.84 14.8002 106.895 13.7696 108.215 13.0289C109.552 12.2881 111.017 11.9177 112.611 11.9177C114.206 11.9177 115.663 12.2881 116.983 13.0289C118.32 13.7696 119.367 14.8002 120.124 16.1207C120.897 17.4412 121.283 18.9308 121.283 20.5894C121.283 22.2481 120.897 23.7457 120.124 25.0823C119.351 26.4028 118.304 27.4334 116.983 28.1741C115.663 28.9149 114.206 29.2853 112.611 29.2853ZM112.611 25.5171C113.964 25.5171 115.043 25.0662 115.848 24.1644C116.669 23.2626 117.08 22.0709 117.08 20.5894C117.08 19.0918 116.669 17.9001 115.848 17.0145C115.043 16.1127 113.964 15.6618 112.611 15.6618C111.243 15.6618 110.147 16.1046 109.326 16.9903C108.521 17.876 108.118 19.0757 108.118 20.5894C108.118 22.087 108.521 23.2867 109.326 24.1885C110.147 25.0742 111.243 25.5171 112.611 25.5171Z" fill="#E3F5EE"/>
<path id="Vector_8" d="M96.6133 26.1208H90.2847L89.2702 29.1161H84.9464L91.0818 12.1592H95.8645L102 29.1161H97.6279L96.6133 26.1208ZM95.5505 22.9324L93.449 16.7245L91.3717 22.9324H95.5505Z" fill="#E3F5EE"/>
<path id="Vector_9" d="M82.3503 12.1592V29.1161H78.2197V22.1353H71.7945V29.1161H67.6639V12.1592H71.7945V18.8018H78.2197V12.1592H82.3503Z" fill="#E3F5EE"/>
<path id="Vector_10" d="M47.8398 20.6136C47.8398 18.9388 48.2021 17.4493 48.9267 16.1449C49.6514 14.8244 50.6579 13.8019 51.9461 13.0772C53.2505 12.3364 54.724 11.9661 56.3665 11.9661C58.3794 11.9661 60.1025 12.4975 61.5357 13.5603C62.9689 14.6231 63.9271 16.0724 64.4102 17.9082H59.869C59.5308 17.1997 59.0477 16.6602 58.4197 16.2898C57.8078 15.9195 57.1073 15.7343 56.3182 15.7343C55.046 15.7343 54.0154 16.1771 53.2263 17.0628C52.4373 17.9485 52.0427 19.1321 52.0427 20.6136C52.0427 22.0951 52.4373 23.2787 53.2263 24.1644C54.0154 25.0501 55.046 25.4929 56.3182 25.4929C57.1073 25.4929 57.8078 25.3078 58.4197 24.9374C59.0477 24.567 59.5308 24.0275 59.869 23.319H64.4102C63.9271 25.1548 62.9689 26.6041 61.5357 27.6669C60.1025 28.7136 58.3794 29.237 56.3665 29.237C54.724 29.237 53.2505 28.8747 51.9461 28.15C50.6579 27.4092 49.6514 26.3867 48.9267 25.0823C48.2021 23.7779 47.8398 22.2884 47.8398 20.6136Z" fill="#E3F5EE"/>
</g>
</g>
</svg>
