<svg width="24" height="24" viewBox="0 0 24 24" fill="none" xmlns="http://www.w3.org/2000/svg">
<g id="Icon">
<path id="Traced layer" fill-rule="evenodd" clip-rule="evenodd" d="M8.60971 4.58425C8.36899 4.63426 7.96572 4.72946 7.71354 4.7958C7.46137 4.86215 7.08671 4.96933 6.88097 5.03405C6.67522 5.09874 6.26945 5.24337 5.97925 5.35544C5.68904 5.46751 5.35487 5.60236 5.23664 5.65506C5.02973 5.74729 5.00901 5.77095 4.68418 6.2854C4.49853 6.57935 4.2045 7.07966 4.03073 7.3972C3.85692 7.71473 3.60181 8.22594 3.46377 8.53319C3.32572 8.84044 3.12209 9.331 3.01129 9.6233C2.90044 9.9156 2.73043 10.427 2.6335 10.7598C2.53653 11.0926 2.3977 11.6596 2.32496 12.0198C2.25223 12.3801 2.16534 12.8886 2.13181 13.15C2.09831 13.4114 2.05098 13.9228 2.02667 14.2865C2.00107 14.6696 1.99271 15.272 2.00682 15.7184C2.02018 16.1422 2.04254 16.6054 2.05649 16.7476L2.08186 17.0063L2.50217 17.2973C2.73336 17.4573 3.15738 17.7278 3.44446 17.8983C3.73154 18.0689 4.26539 18.3536 4.63083 18.5311C4.99627 18.7085 5.51676 18.9402 5.7875 19.046C6.05824 19.1517 6.46174 19.3007 6.68418 19.3771C6.90664 19.4534 7.10871 19.5082 7.13326 19.499C7.15776 19.4897 7.29909 19.3027 7.4473 19.0835C7.59551 18.8643 7.82548 18.4942 7.95833 18.2612C8.14058 17.9414 8.18877 17.8266 8.15461 17.7936C8.12972 17.7696 7.93347 17.677 7.71851 17.5879C7.50354 17.4988 7.16542 17.3398 6.96711 17.2347C6.76883 17.1294 6.59581 17.0262 6.58267 17.0053C6.56954 16.9843 6.57829 16.944 6.6021 16.9157C6.62594 16.8874 6.71235 16.8185 6.79412 16.7627L6.9428 16.6611L7.19388 16.773C7.33192 16.8346 7.67356 16.9666 7.95301 17.0665C8.23247 17.1662 8.73134 17.3159 9.06161 17.399C9.39191 17.4821 9.87558 17.5838 10.1364 17.625C10.3973 17.6662 10.8218 17.7176 11.0798 17.7393C11.3377 17.761 11.7598 17.7789 12.0178 17.779C12.2758 17.7792 12.6891 17.7615 12.9363 17.7397C13.1835 17.7179 13.6506 17.6571 13.9742 17.6045C14.2978 17.552 14.7855 17.4487 15.0578 17.3751C15.3302 17.3015 15.77 17.1638 16.0351 17.0691C16.3002 16.9744 16.6372 16.8437 16.7842 16.7787C17.0257 16.6719 17.0592 16.666 17.1337 16.7166C17.179 16.7474 17.2688 16.8159 17.3333 16.8689C17.4373 16.9544 17.4439 16.9717 17.3919 17.0223C17.3597 17.0537 17.1047 17.1908 16.8252 17.327C16.5457 17.4633 16.1984 17.6235 16.0533 17.683C15.9082 17.7425 15.7895 17.8028 15.7895 17.8169C15.7895 17.8312 15.9125 18.0546 16.063 18.3134C16.2134 18.5723 16.4417 18.9382 16.5702 19.1266C16.6987 19.3149 16.8198 19.4789 16.8395 19.4908C16.8591 19.5028 17.0662 19.4504 17.2996 19.3745C17.5331 19.2986 17.944 19.1497 18.2127 19.0437C18.4814 18.9376 19.0002 18.7062 19.3657 18.5294C19.7311 18.3526 20.2194 18.0951 20.4508 17.9573C20.6822 17.8195 21.0691 17.5757 21.3106 17.4154C21.5522 17.2552 21.7889 17.0939 21.8367 17.0569C21.919 16.9933 21.9259 16.9445 21.9715 16.1129C22.0093 15.4236 22.0094 15.0569 21.9723 14.3985C21.9463 13.9378 21.8902 13.3182 21.8475 13.0215C21.8048 12.7249 21.7337 12.3001 21.6895 12.0776C21.6453 11.8551 21.5461 11.4304 21.4691 11.1337C21.392 10.8371 21.2364 10.3256 21.1232 9.9972C21.0101 9.66876 20.8099 9.15224 20.6785 8.84934C20.5471 8.54644 20.3496 8.12169 20.2397 7.90544C20.1298 7.68919 19.9256 7.31286 19.786 7.06918C19.6464 6.8255 19.3986 6.42413 19.2354 6.17721L18.9387 5.72834L18.5464 5.56445C18.3306 5.47429 17.9475 5.32512 17.6951 5.23293C17.4427 5.14077 17.003 4.99814 16.718 4.91601C16.433 4.83387 15.9624 4.71332 15.6722 4.64805C15.382 4.58283 15.0656 4.52442 14.969 4.5183L14.7934 4.50716L14.5502 4.98874C14.4165 5.25361 14.3014 5.4852 14.2944 5.50334C14.2876 5.52153 14.0187 5.50492 13.697 5.46647C13.2585 5.414 12.8335 5.39651 11.9983 5.39651C11.163 5.39651 10.738 5.414 10.2995 5.46647C9.97779 5.50492 9.70935 5.52153 9.70294 5.50334C9.69653 5.4852 9.58053 5.25361 9.44518 4.98874C9.26543 4.637 9.17863 4.50531 9.12324 4.50027C9.0815 4.49645 8.85043 4.53425 8.60971 4.58425ZM9.19657 10.8454C9.34845 10.8916 9.54391 10.9917 9.67949 11.0925C9.80476 11.1857 9.9729 11.3473 10.0531 11.4515C10.1333 11.5559 10.241 11.7351 10.2923 11.8498C10.3436 11.9645 10.4055 12.1503 10.4298 12.2625C10.4541 12.3748 10.4737 12.5915 10.4734 12.7441C10.4731 12.8967 10.4463 13.1325 10.4139 13.268C10.3815 13.4035 10.2922 13.6321 10.2156 13.7759C10.1318 13.933 9.9847 14.1233 9.84666 14.2531C9.71209 14.3796 9.50721 14.5202 9.35177 14.5927C9.10741 14.7067 9.05559 14.7164 8.69562 14.7156C8.3849 14.7148 8.26037 14.6971 8.08817 14.6292C7.969 14.5822 7.76791 14.4614 7.64124 14.3606C7.51452 14.2598 7.33888 14.0733 7.25082 13.9462C7.1628 13.819 7.0502 13.5937 7.00064 13.4453C6.95108 13.297 6.90102 13.0538 6.88937 12.9048C6.87772 12.7559 6.88949 12.5098 6.91548 12.3578C6.94147 12.2059 7.02249 11.9587 7.09554 11.8085C7.17 11.6553 7.31856 11.4413 7.43378 11.3212C7.54677 11.2034 7.71839 11.0613 7.81516 11.0054C7.9119 10.9495 8.07926 10.8738 8.18701 10.837C8.29942 10.7987 8.50196 10.7697 8.6622 10.769C8.83515 10.7682 9.03855 10.7973 9.19657 10.8454ZM15.8437 10.8463C16.0052 10.8955 16.1921 10.9925 16.3441 11.1063C16.4809 11.2087 16.658 11.3912 16.7506 11.5252C16.8408 11.6557 16.9541 11.8637 17.0022 11.9875C17.0654 12.1495 17.0952 12.3258 17.1088 12.6175C17.1226 12.9149 17.1109 13.0868 17.0647 13.2645C17.0301 13.3976 16.9533 13.6048 16.894 13.725C16.8347 13.8452 16.6829 14.0526 16.5568 14.1858C16.3951 14.3566 16.2449 14.4683 16.0478 14.5643C15.8405 14.6652 15.6973 14.7063 15.4939 14.7231C15.3405 14.7358 15.1285 14.7266 15.013 14.7021C14.8995 14.6781 14.7071 14.6109 14.5855 14.5528C14.4639 14.4946 14.2673 14.3516 14.1487 14.235C14.0276 14.116 13.8678 13.9006 13.7844 13.7441C13.7027 13.5907 13.6107 13.348 13.5799 13.2048C13.5491 13.0616 13.5239 12.8578 13.5239 12.7519C13.5239 12.6459 13.5499 12.4379 13.5816 12.2895C13.6133 12.1412 13.693 11.9119 13.7587 11.7801C13.8244 11.6482 13.9676 11.4438 14.0769 11.326C14.1862 11.2081 14.3565 11.0649 14.4555 11.0078C14.5545 10.9506 14.7236 10.8738 14.8314 10.837C14.9438 10.7987 15.1463 10.7697 15.3066 10.769C15.4805 10.7682 15.6831 10.7974 15.8437 10.8463Z" fill="#97F312"/>
</g>
</svg>
