<svg width="29" height="26" viewBox="0 0 29 26" fill="none" xmlns="http://www.w3.org/2000/svg">
<g id="Black">
<path id="Vector" d="M0.471332 0.122564C0.157111 0.318953 0 0.613535 0 1.03904C0 1.46455 0.157111 1.75913 0.471332 1.95552C0.674266 2.0799 0.805192 2.08645 2.50068 2.08645H4.314L4.37946 2.42685C4.41874 2.6167 5.02099 6.0404 5.72144 10.0402C6.42844 14.0334 7.05034 17.4702 7.10925 17.6666C7.26637 18.1837 7.43657 18.4914 7.76388 18.8449C7.92099 19.0151 8.05192 19.1657 8.05192 19.1853C8.05192 19.205 7.94718 19.3948 7.8228 19.6043C7.46275 20.2 7.33183 20.7106 7.33183 21.4896C7.33183 22.046 7.36456 22.2359 7.51512 22.681C7.9079 23.7939 8.71309 24.586 9.83905 24.9657C10.4413 25.1686 11.4102 25.1948 11.9862 25.0246C13.1973 24.6711 14.1072 23.7939 14.5065 22.609C14.6637 22.1311 14.6767 22.0199 14.6506 21.3325C14.6244 20.7826 14.5786 20.488 14.4804 20.2327L14.3494 19.8923H17.2756H20.2084L20.0578 20.3309C19.94 20.6779 19.9007 20.9201 19.9007 21.4307C19.9007 22.5894 20.2018 23.3422 20.9808 24.1147C22.4275 25.5614 24.6991 25.5614 26.1589 24.1147C26.9707 23.3095 27.2718 22.4977 27.2194 21.267C27.1801 20.5011 27.0427 20.0429 26.6761 19.5061L26.46 19.1788L26.6237 19.0282C26.879 18.7925 27.2325 18.223 27.3634 17.8237C27.514 17.3851 29 7.80789 29 7.2711C29 6.08622 28.293 4.98645 27.1867 4.4562L26.6761 4.21399L16.7781 4.19435C11.3316 4.1878 6.87359 4.15507 6.87359 4.12889C6.87359 3.86703 6.38262 1.41218 6.29097 1.19615C6.12077 0.816469 5.70181 0.377871 5.32212 0.188028C5.0079 0.0243702 4.99481 0.0243702 2.84763 0.00473213C0.779007 -0.00835991 0.680813 -0.00181389 0.471332 0.122564ZM26.2964 6.42008C26.5648 6.57065 26.7808 6.87832 26.8201 7.17945C26.8594 7.48058 25.4388 16.7436 25.2948 17.1298C25.2228 17.3262 25.105 17.4636 24.9217 17.588L24.6533 17.7648L17.5833 17.7844C13.6883 17.7975 10.3562 17.7844 10.1664 17.7648C9.80632 17.719 9.47901 17.5422 9.28916 17.2738C9.19752 17.156 8.92912 15.7289 8.24831 11.8731C7.74424 8.99277 7.31219 6.55755 7.29255 6.45281L7.25327 6.27606L16.6734 6.28916C25.465 6.30879 26.1 6.31534 26.2964 6.42008ZM11.6393 20.0822C12.6016 20.5731 12.8045 21.83 12.0386 22.5566C11.0828 23.46 9.49865 22.7923 9.4921 21.4765C9.4921 20.8677 9.82596 20.3375 10.3758 20.0822C10.7293 19.9185 11.3185 19.9185 11.6393 20.0822ZM24.1427 20.0625C24.6991 20.2916 25.0722 20.8481 25.0722 21.4634C25.0722 22.7923 23.488 23.4666 22.5257 22.5566C21.5503 21.6271 22.205 19.9643 23.5535 19.9578C23.7433 19.9578 24.0052 20.0036 24.1427 20.0625Z" fill="#E3F5EE"/>
</g>
</svg>
