<svg width="337" height="337" viewBox="0 0 337 337" fill="none" xmlns="http://www.w3.org/2000/svg">
<g clip-path="url(#clip0_11_3)">
<mask id="mask0_11_3" style="mask-type:alpha" maskUnits="userSpaceOnUse" x="0" y="0" width="337" height="337">
<circle cx="168.544" cy="168.309" r="168.309" fill="#D9D9D9"/>
</mask>
<g mask="url(#mask0_11_3)">
<path d="M-84 0.330994H428V341.668H-84V0.330994Z" fill="#F0F0F0"/>
<path d="M-84 42.994H428V85.657H-84V42.994ZM-84 128.331H428V170.994H-84V128.331ZM-84 213.657H428V256.32H-84V213.657ZM-84 298.994H428V341.657H-84V298.994Z" fill="#D80027"/>
<path d="M-84 0.330994H172V184.128H-84V0.330994Z" fill="#2E52B2"/>
<path d="M15.822 75.624L11.699 88.308H-1.63699L9.15401 96.143L5.03101 108.826L15.822 100.991L26.606 108.826L22.484 96.143L33.275 88.308H19.938L15.822 75.624ZM19.938 134.08L15.822 121.397L11.699 134.08H-1.63699L9.15401 141.916L5.03101 154.599L15.822 146.763L26.606 154.599L22.484 141.916L33.275 134.08H19.938ZM-36.423 134.08L-40.54 121.397L-44.663 134.08H-57.999L-47.208 141.916L-51.331 154.599L-40.54 146.763L-29.755 154.599L-33.877 141.916L-23.088 134.08H-36.423ZM-40.54 75.624L-44.663 88.308H-57.999L-47.208 96.143L-51.331 108.826L-40.54 100.991L-29.755 108.826L-33.877 96.143L-23.088 88.308H-36.423L-40.54 75.624ZM15.822 29.85L11.699 42.535H-1.63699L9.15401 50.371L5.03101 63.054L15.822 55.218L26.606 63.054L22.484 50.371L33.275 42.535H19.938L15.822 29.85ZM-40.54 29.85L-44.663 42.535H-57.999L-47.208 50.371L-51.331 63.054L-40.54 55.218L-29.755 63.054L-33.877 50.371L-23.088 42.535H-36.423L-40.54 29.85ZM72.183 75.624L68.061 88.308H54.725L65.515 96.143L61.394 108.826L72.183 100.991L82.969 108.826L78.846 96.143L89.637 88.308H76.301L72.183 75.624ZM76.301 134.08L72.183 121.397L68.061 134.08H54.725L65.515 141.916L61.394 154.599L72.183 146.763L82.969 154.599L78.846 141.916L89.637 134.08H76.301ZM132.663 134.08L128.546 121.397L124.423 134.08H111.088L121.877 141.916L117.755 154.599L128.546 146.763L139.331 154.599L135.208 141.916L145.999 134.08H132.663ZM128.546 75.624L124.423 88.308H111.088L121.877 96.143L117.755 108.826L128.546 100.991L139.331 108.826L135.208 96.143L145.999 88.308H132.663L128.546 75.624ZM72.183 29.85L68.061 42.535H54.725L65.515 50.371L61.394 63.054L72.183 55.218L82.969 63.054L78.846 50.371L89.637 42.535H76.301L72.183 29.85ZM128.546 29.85L124.423 42.535H111.088L121.877 50.371L117.755 63.054L128.546 55.218L139.331 63.054L135.208 50.371L145.999 42.535H132.663L128.546 29.85Z" fill="#F0F0F0"/>
</g>
</g>
<defs>
<clipPath id="clip0_11_3">
<rect width="337" height="337" fill="white"/>
</clipPath>
</defs>
</svg>
