<svg width="24" height="24" viewBox="0 0 24 24" fill="none" xmlns="http://www.w3.org/2000/svg">
<g id="icon">
<g id="Black">
<path id="Vector" d="M10.7272 1.04201C8.6342 1.29988 6.78619 2.06917 5.09719 3.39286C4.64593 3.74527 3.59299 4.8283 3.23628 5.30105C2.10598 6.80954 1.38826 8.48995 1.09601 10.2993C0.988572 10.9654 0.967083 12.6072 1.05304 13.3292C1.34098 15.6843 2.37244 17.8676 4.00986 19.5823C5.70746 21.3573 7.76607 22.4532 10.2072 22.8787C10.955 23.0076 12.5408 23.0377 13.3316 22.9346C18.0677 22.3415 21.8583 18.8302 22.8038 14.1672C23.0058 13.1788 23.0573 11.6574 22.9327 10.6216C22.3138 5.64916 18.3427 1.67807 13.3703 1.0592C12.7901 0.99044 11.2515 0.977547 10.7272 1.04201ZM12.4506 6.43134C12.5666 6.50011 12.6826 6.62044 12.7557 6.74508L12.876 6.94707L12.8889 9.01857L12.9018 11.0901L14.9733 11.103L17.0448 11.1159L17.2468 11.2362C17.8356 11.58 17.8356 12.4138 17.2468 12.7576L17.0448 12.8779L14.9733 12.8908L12.9018 12.9037L12.8889 14.9752L12.876 17.0467L12.7557 17.2487C12.4119 17.8375 11.5781 17.8375 11.2343 17.2487L11.114 17.0467L11.1011 14.9752L11.0882 12.9037L9.0167 12.8908L6.9452 12.8779L6.74321 12.7576C6.15442 12.4138 6.15442 11.58 6.74321 11.2362L6.9452 11.1159L9.0167 11.103L11.0882 11.0901L11.1011 9.01857L11.114 6.94707L11.23 6.74508C11.4922 6.30671 12.0079 6.17348 12.4506 6.43134Z" fill="#040A09"/>
</g>
</g>
</svg>
