<svg width="24" height="24" viewBox="0 0 24 24" fill="none" xmlns="http://www.w3.org/2000/svg">
<g id="Icon">
<path id="help 1 (Traced)" fill-rule="evenodd" clip-rule="evenodd" d="M8.53084 2.07248C8.28349 2.1103 7.92906 2.17976 7.74323 2.22682C7.55739 2.27391 7.19769 2.39121 6.94388 2.48751C6.69004 2.58385 6.29655 2.76091 6.06942 2.88103C5.84232 3.00115 5.5157 3.19714 5.34363 3.31656C5.17156 3.43597 4.93399 3.61319 4.81569 3.71035C4.69739 3.80755 4.47163 4.01172 4.31403 4.16411C4.15643 4.31649 3.91666 4.5732 3.7812 4.73454C3.64577 4.89588 3.41739 5.20136 3.27371 5.41339C3.13003 5.62543 2.90067 6.03025 2.76403 6.313C2.62743 6.59575 2.45423 7.01192 2.37918 7.2378C2.30413 7.46368 2.2066 7.8245 2.16249 8.03963C2.11834 8.25475 2.06374 8.5799 2.0411 8.76221C2.0185 8.94448 2 9.34402 2 9.65005C2 9.95603 2.02659 10.4093 2.05909 10.6573C2.09159 10.9052 2.16949 11.3065 2.23222 11.5491C2.29494 11.7916 2.40929 12.1547 2.48625 12.356C2.56326 12.5572 2.7207 12.906 2.83614 13.131L3.04603 13.5403L2.53768 15.3776C2.25807 16.3882 2.03958 17.2252 2.05213 17.2378C2.06472 17.2504 2.9 17.0323 3.90837 16.7532L5.74174 16.2458L6.26616 16.5049C6.55458 16.6474 6.99296 16.8298 7.24031 16.9102C7.48766 16.9906 7.85722 17.0904 8.06156 17.1321C8.26589 17.1738 8.58219 17.2264 8.76446 17.2489C8.9467 17.2715 9.34313 17.29 9.64538 17.29C9.94764 17.29 10.3441 17.2714 10.5263 17.2488C10.7086 17.2261 10.9897 17.181 11.151 17.1485C11.3123 17.1161 11.5675 17.0544 11.718 17.0115C11.8686 16.9686 12.159 16.8706 12.3633 16.7937C12.5676 16.7168 12.9071 16.5662 13.1176 16.459C13.3282 16.3519 13.6695 16.1511 13.8763 16.0129C14.083 15.8746 14.3876 15.6485 14.5532 15.5104C14.7187 15.3723 15.0023 15.1036 15.1833 14.9134C15.3642 14.7232 15.6136 14.433 15.7374 14.2685C15.8611 14.104 16.0532 13.8233 16.1641 13.6447C16.275 13.4661 16.4499 13.1439 16.5527 12.9288C16.6556 12.7137 16.811 12.3242 16.8982 12.0632C16.9853 11.8021 17.0914 11.4237 17.1339 11.2222C17.1763 11.0207 17.2314 10.6642 17.2562 10.43C17.2828 10.1785 17.2924 9.73817 17.2795 9.35439C17.2675 8.99697 17.23 8.5551 17.1962 8.37244C17.1623 8.18978 17.0988 7.89937 17.0548 7.72707C17.0109 7.55478 16.9035 7.2202 16.8162 6.98356C16.7289 6.74693 16.5522 6.35129 16.4237 6.10441C16.2951 5.85753 16.0916 5.51431 15.9714 5.3417C15.8512 5.16909 15.6427 4.89588 15.5081 4.73454C15.3735 4.5732 15.1343 4.3161 14.9767 4.16321C14.8191 4.01031 14.5758 3.79163 14.436 3.67722C14.2962 3.56286 14.0234 3.36478 13.8298 3.23712C13.6362 3.10941 13.2491 2.8937 12.9695 2.75774C12.6898 2.62179 12.2738 2.44843 12.0449 2.37251C11.8159 2.29656 11.4552 2.19936 11.2432 2.15649C11.0311 2.11362 10.7086 2.06012 10.5263 2.03755C10.3441 2.01502 9.92171 1.9982 9.58774 2.00015C9.22326 2.00227 8.80079 2.03117 8.53084 2.07248ZM10.2079 5.60051C10.3072 5.62421 10.5204 5.70565 10.6817 5.78153C10.9027 5.88541 11.0484 5.99274 11.2728 6.21682C11.4812 6.42487 11.6135 6.59935 11.7132 6.79762C11.7916 6.95352 11.8817 7.19114 11.9134 7.32565C11.9451 7.4602 11.9711 7.70227 11.9711 7.86362C11.9711 8.02496 11.9446 8.26938 11.9122 8.40675C11.8798 8.54411 11.7828 8.79213 11.6966 8.95789C11.5746 9.19238 11.4554 9.34125 11.1596 9.62846C10.9506 9.83153 10.6519 10.114 10.496 10.2561L10.2124 10.5145V10.9687V11.4229H9.64538H9.07833V10.7051V9.9872L9.67448 9.44368C10.0024 9.1447 10.3505 8.82092 10.4481 8.72411C10.5457 8.62731 10.6678 8.4601 10.7195 8.35254C10.7931 8.19956 10.8135 8.09306 10.8135 7.86362C10.8135 7.64165 10.7927 7.52716 10.7278 7.39304C10.6807 7.29557 10.5913 7.15418 10.5292 7.07884C10.467 7.00347 10.322 6.88961 10.2068 6.82578C10.0181 6.72127 9.96242 6.70977 9.64538 6.70977C9.32834 6.70977 9.27266 6.72127 9.08397 6.82578C8.9688 6.88961 8.82375 7.00347 8.76161 7.07884C8.69951 7.15418 8.61554 7.28677 8.57499 7.37349C8.53444 7.4602 8.4888 7.60594 8.47351 7.69738L8.44574 7.86362H7.88213H7.31853L7.31911 7.71694C7.31943 7.63629 7.34563 7.4602 7.37734 7.32565C7.40906 7.19114 7.49689 6.95814 7.57257 6.80787C7.65211 6.64989 7.81561 6.42311 7.96023 6.27021C8.09781 6.12475 8.30566 5.94831 8.42212 5.87814C8.53862 5.80797 8.73384 5.71543 8.85601 5.67248C8.97818 5.62957 9.17055 5.57794 9.28353 5.55784C9.39651 5.53773 9.61011 5.5294 9.75821 5.53934C9.90626 5.54931 10.1086 5.57685 10.2079 5.60051ZM18.449 9.94332C18.4377 10.0364 18.4184 10.258 18.4061 10.4357C18.3939 10.6134 18.3491 10.9591 18.3066 11.2038C18.2641 11.4486 18.1845 11.8048 18.1297 11.9955C18.0749 12.1861 17.976 12.4917 17.9098 12.6746C17.8437 12.8574 17.6981 13.2007 17.5862 13.4373C17.4743 13.6739 17.2795 14.034 17.1533 14.2375C17.0271 14.4411 16.7912 14.7843 16.629 15.0003C16.4669 15.2162 16.1226 15.6045 15.8641 15.8631C15.6056 16.1216 15.2174 16.4659 15.0015 16.6281C14.7855 16.7903 14.4497 17.0215 14.2552 17.1418C14.0607 17.2622 13.771 17.4264 13.6115 17.5068C13.452 17.5871 13.134 17.7282 12.9049 17.8203C12.6758 17.9125 12.2974 18.0426 12.0641 18.1095C11.8308 18.1765 11.4463 18.2658 11.2097 18.3079C10.9731 18.3499 10.5629 18.4002 10.2982 18.4196C10.0334 18.439 9.80701 18.4647 9.79504 18.4767C9.78308 18.4886 9.83548 18.6093 9.91154 18.7449C9.98761 18.8805 10.1371 19.1146 10.2437 19.2652C10.3503 19.4158 10.5602 19.68 10.71 19.8523C10.8598 20.0246 11.1303 20.291 11.3111 20.4443C11.4919 20.5976 11.7894 20.8234 11.9722 20.9462C12.1551 21.069 12.4982 21.2631 12.7348 21.3776C12.9714 21.492 13.3278 21.6396 13.5268 21.7056C13.7257 21.7717 14.0689 21.8647 14.2894 21.9124C14.6341 21.987 14.8105 21.9993 15.5505 22C16.296 22.0007 16.4639 21.9892 16.8083 21.9139C17.027 21.8661 17.3702 21.7735 17.5709 21.7081C17.7717 21.6427 18.1362 21.4931 18.3808 21.3757C18.6254 21.2583 18.8526 21.1622 18.8857 21.1622C18.9187 21.1622 19.6212 21.3492 20.4467 21.5778C21.2722 21.8064 21.9579 21.9832 21.9704 21.9707C21.983 21.9581 21.8008 21.2533 21.5655 20.4043L21.1378 18.8607L21.3598 18.4108C21.4818 18.1633 21.6372 17.7894 21.705 17.5798C21.7728 17.3703 21.8671 17.0213 21.9146 16.8044C21.9891 16.4634 22.0007 16.2932 22 15.5494C21.9993 14.8093 21.987 14.6328 21.9124 14.288C21.8647 14.0676 21.7717 13.7243 21.7057 13.5253C21.6397 13.3263 21.4919 12.9699 21.3773 12.7332C21.2628 12.4966 21.0636 12.1446 20.9347 11.951C20.8058 11.7574 20.5534 11.4326 20.3739 11.2293C20.1943 11.026 19.8605 10.7092 19.6321 10.5252C19.4036 10.3413 19.0781 10.108 18.9088 10.0067C18.7394 9.90542 18.5713 9.81162 18.5353 9.79825C18.4819 9.77853 18.4658 9.80556 18.449 9.94332ZM10.2124 13.1831V13.7698H9.64538H9.07833V13.1831V12.5963H9.64538H10.2124V13.1831Z" fill="#97F312"/>
</g>
</svg>
