<svg width="32" height="32" viewBox="0 0 32 32" fill="none" xmlns="http://www.w3.org/2000/svg">
<g id="instagram">
<g id="back" filter="url(#filter0_b_0_495)">
<path fill-rule="evenodd" clip-rule="evenodd" d="M0 16C0 7.16344 7.16344 0 16 0C24.8366 0 32 7.16344 32 16C32 24.8366 24.8366 32 16 32C7.16344 32 0 24.8366 0 16Z" fill="#0C1716"/>
</g>
<g id="Group 47847">
<g id="Group 47846">
<path id="Subtract" fill-rule="evenodd" clip-rule="evenodd" d="M12.4826 7.51774C13.3929 7.47632 13.6837 7.46619 16.0013 7.46619H15.9986C18.3168 7.46619 18.6066 7.47632 19.5168 7.51774C20.4253 7.55934 21.0457 7.70317 21.5898 7.91419C22.1515 8.13197 22.6262 8.42353 23.1009 8.8982C23.5756 9.37252 23.8671 9.84861 24.0858 10.4099C24.2956 10.9524 24.4396 11.5725 24.4822 12.481C24.5231 13.3912 24.5338 13.6821 24.5338 15.9996C24.5338 18.3171 24.5231 18.6073 24.4822 19.5175C24.4396 20.4256 24.2956 21.0459 24.0858 21.5886C23.8671 22.1497 23.5756 22.6258 23.1009 23.1001C22.6267 23.5748 22.1514 23.8671 21.5903 24.085C21.0473 24.296 20.4265 24.4399 19.5181 24.4815C18.6079 24.5229 18.3179 24.533 16.0002 24.533C13.6828 24.533 13.3922 24.5229 12.4819 24.4815C11.5736 24.4399 10.9534 24.296 10.4104 24.085C9.84954 23.8671 9.37345 23.5748 8.89931 23.1001C8.42482 22.6258 8.13326 22.1497 7.91512 21.5885C7.70428 21.0459 7.56045 20.4258 7.51867 19.5173C7.47743 18.6071 7.46712 18.3171 7.46712 15.9996C7.46712 13.6821 7.47778 13.391 7.5185 12.4808C7.55938 11.5727 7.70339 10.9524 7.91494 10.4097C8.13361 9.84861 8.42517 9.37252 8.89984 8.8982C9.37416 8.42371 9.85025 8.13215 10.4115 7.91419C10.9541 7.70317 11.5742 7.55934 12.4826 7.51774ZM15.7174 9.00372C15.5448 9.00364 15.3849 9.00357 15.2363 9.0038V9.00167C13.6459 9.00345 13.3408 9.01411 12.5536 9.04967C11.7216 9.08789 11.2698 9.22656 10.969 9.34389C10.5708 9.49892 10.2864 9.68381 9.9877 9.98248C9.68903 10.2811 9.50378 10.5656 9.34912 10.9638C9.23232 11.2646 9.09329 11.7162 9.05525 12.5482C9.01436 13.4478 9.00618 13.7166 9.00618 15.9953C9.00618 18.2741 9.01436 18.5443 9.05525 19.4439C9.09311 20.2759 9.23232 20.7275 9.34912 21.0279C9.50414 21.4263 9.68903 21.7101 9.9877 22.0087C10.2864 22.3074 10.5708 22.4923 10.969 22.647C11.27 22.7638 11.7216 22.9028 12.5536 22.9412C13.4532 22.9821 13.7232 22.991 16.0018 22.991C18.2802 22.991 18.5505 22.9821 19.45 22.9412C20.282 22.9031 20.7339 22.7645 21.0344 22.6471C21.4328 22.4925 21.7164 22.3076 22.015 22.0089C22.3137 21.7104 22.4989 21.4269 22.6536 21.0286C22.7704 20.7282 22.9094 20.2766 22.9475 19.4446C22.9884 18.5451 22.9973 18.2748 22.9973 15.9975C22.9973 13.7201 22.9884 13.4499 22.9475 12.5503C22.9096 11.7183 22.7704 11.2668 22.6536 10.9663C22.4986 10.5681 22.3137 10.2836 22.015 9.98497C21.7165 9.6863 21.4326 9.50141 21.0344 9.34674C20.7336 9.22994 20.282 9.09091 19.45 9.05287C18.5503 9.01198 18.2802 9.0038 16.0018 9.0038C15.9033 9.0038 15.8086 9.00376 15.7174 9.00372Z" fill="#97F312"/>
<path id="Shape" fill-rule="evenodd" clip-rule="evenodd" d="M20.5559 10.421C19.9906 10.421 19.5319 10.8791 19.5319 11.4447C19.5319 12.01 19.9906 12.4687 20.5559 12.4687C21.1212 12.4687 21.5799 12.01 21.5799 11.4447C21.5799 10.8793 21.1212 10.4207 20.5559 10.4207V10.421Z" fill="#97F312"/>
</g>
<path id="Subtract_2" fill-rule="evenodd" clip-rule="evenodd" d="M11.6175 15.9997C11.6175 13.5796 13.5796 11.6175 15.9996 11.6174C18.4197 11.6174 20.3813 13.5796 20.3813 15.9997C20.3813 18.4198 18.4199 20.3811 15.9998 20.3811C13.5797 20.3811 11.6175 18.4198 11.6175 15.9997ZM18.8442 15.9997C18.8442 14.4287 17.5706 13.1553 15.9997 13.1553C14.4287 13.1553 13.1553 14.4287 13.1553 15.9997C13.1553 17.5706 14.4287 18.8442 15.9997 18.8442C17.5706 18.8442 18.8442 17.5706 18.8442 15.9997Z" fill="#97F312"/>
</g>
</g>
<defs>
<filter id="filter0_b_0_495" x="-20" y="-20" width="72" height="72" filterUnits="userSpaceOnUse" color-interpolation-filters="sRGB">
<feFlood flood-opacity="0" result="BackgroundImageFix"/>
<feGaussianBlur in="BackgroundImageFix" stdDeviation="10"/>
<feComposite in2="SourceAlpha" operator="in" result="effect1_backgroundBlur_0_495"/>
<feBlend mode="normal" in="SourceGraphic" in2="effect1_backgroundBlur_0_495" result="shape"/>
</filter>
</defs>
</svg>
