<svg width="25" height="24" viewBox="0 0 25 24" fill="none" xmlns="http://www.w3.org/2000/svg">
<g id="icon">
<g id="Black">
<path id="Vector" d="M18.6521 0.92474C18.2806 1.11633 18.0309 1.45888 17.9612 1.87109C17.938 1.9814 17.9729 2.35297 18.0309 2.69551C18.0948 3.04387 18.1354 3.32254 18.1296 3.32254C18.1238 3.32254 17.8451 3.19482 17.5142 3.03806C13.8972 1.34276 9.66472 1.84206 6.45991 4.33856C5.84449 4.81464 4.93298 5.77841 4.43948 6.4635C3.96921 7.11955 3.31896 8.39103 3.06931 9.13998C2.08812 12.0835 2.38422 15.2245 3.88793 17.8545C5.07232 19.9272 7.00565 21.5819 9.27573 22.4585C10.3556 22.8708 11.36 23.0623 12.6779 23.103C13.932 23.1436 14.6461 23.0682 15.6912 22.8011C17.5258 22.3308 18.9831 21.5122 20.359 20.1885C21.6247 18.9692 22.5014 17.5991 23.0297 16.0025C23.262 15.3174 23.5 14.2781 23.5 13.9762C23.5 13.4943 23.1052 12.9312 22.6582 12.786C22.304 12.6699 21.7989 12.7338 21.5144 12.937C21.1835 13.1692 21.0325 13.4537 20.9222 14.0691C20.3649 17.123 17.9554 19.6485 14.9074 20.3801C12.7476 20.9026 10.4543 20.4904 8.59064 19.2479C7.9462 18.8183 7.00566 17.9126 6.547 17.2739C6.09995 16.6469 5.56001 15.5438 5.3568 14.8471C4.43368 11.6423 5.57162 8.20524 8.22488 6.20804C9.57183 5.19202 11.0349 4.68111 12.765 4.61724C14.1584 4.56499 15.1454 4.76819 16.3821 5.34297L16.951 5.61004L16.0337 5.7726C15.2731 5.90033 15.0757 5.95839 14.8842 6.09192C14.2049 6.5738 14.2107 7.65949 14.8958 8.1588C15.2906 8.44909 15.4996 8.43748 18.0716 7.99623C19.314 7.78722 20.4229 7.57241 20.5274 7.52015C20.8061 7.38662 21.1022 7.01505 21.1777 6.68992C21.2357 6.45188 21.2183 6.26029 21.0325 5.1746C20.5564 2.35878 20.4171 1.62724 20.3416 1.47629C20.2313 1.26148 19.9062 0.959574 19.7088 0.889904C19.465 0.79701 18.8553 0.814428 18.6521 0.92474Z" fill="#040A09"/>
</g>
</g>
</svg>
