<svg width="50" height="50" viewBox="0 0 50 50" fill="none" xmlns="http://www.w3.org/2000/svg">
<g id="Support">
<g id="Black">
<path id="Vector" d="M23.4979 11.0518C21.6975 11.2802 19.7774 11.9928 18.3033 12.9773C15.4477 14.8865 13.5385 17.9543 13.0762 21.3811C13.0218 21.8271 13 22.7953 13 25.7543C13 29.0288 13.0109 29.5944 13.087 29.8827C13.3808 31.0141 14.3 31.9334 15.4314 32.2271C15.8611 32.3413 16.6715 32.3359 17.1012 32.2271C18.2163 31.9388 19.1519 31.0032 19.4402 29.8827C19.5707 29.3932 19.5707 24.7915 19.4402 24.302C19.1464 23.1652 18.2272 22.2514 17.0741 21.9522C16.8075 21.8815 16.5736 21.8652 16.1004 21.8869C15.7577 21.8978 15.4314 21.9304 15.3824 21.9522C15.2519 22.0066 15.2519 21.8162 15.3987 21.071C15.7904 19.0258 16.9489 17.0242 18.5372 15.6371C22.236 12.4007 27.6971 12.4007 31.3958 15.6371C32.9841 17.0242 34.1427 19.0258 34.5343 21.071C34.6811 21.8162 34.6811 22.0066 34.556 21.9522C34.5016 21.9304 34.1753 21.8978 33.8326 21.8869C33.3594 21.8652 33.1255 21.8815 32.859 21.9522C31.7113 22.2514 30.7811 23.1706 30.4874 24.302C30.3623 24.7698 30.3678 29.4041 30.4929 29.8827C30.7866 31.0195 31.7004 31.9334 32.859 32.2325C33.1255 32.3032 33.3594 32.3195 33.8761 32.3032C34.2406 32.2869 34.5397 32.2869 34.5397 32.3032C34.5397 32.3141 34.4581 32.4882 34.3657 32.6894C34.1263 33.179 33.4464 33.8589 32.9623 34.0982C32.2824 34.43 32.1464 34.4463 30.0251 34.4735L28.0941 34.5007L27.882 34.0819C27.5121 33.353 26.8703 32.7819 26.0816 32.4773C25.6301 32.3032 24.6565 32.2651 24.1561 32.3957C23.0084 32.6949 22.0782 33.6141 21.7845 34.7455C21.6757 35.1534 21.6812 35.9911 21.7899 36.4099C22.0782 37.5304 23.0138 38.466 24.1289 38.7543C24.5586 38.863 25.3908 38.8685 25.8042 38.7597C26.6581 38.5367 27.4795 37.8731 27.882 37.0898L28.0941 36.6656H30.1175C31.6297 36.6656 32.2389 36.6438 32.538 36.5894C34.7138 36.1706 36.438 34.4463 36.8569 32.2706C36.9711 31.6831 36.9657 22.2187 36.8569 21.3811C36.5033 18.7647 35.3012 16.3279 33.4519 14.4731C31.5644 12.5911 29.0623 11.3781 26.3807 11.0464C25.8477 10.9811 24.0146 10.9865 23.4979 11.0518ZM16.7423 24.2041C16.9707 24.3237 17.0795 24.4325 17.2209 24.6991C17.3188 24.8785 17.3243 25.0417 17.3243 27.0924C17.3243 29.2409 17.3188 29.3007 17.21 29.5129C17.0033 29.899 16.6933 30.084 16.2636 30.084C15.8339 30.084 15.5238 29.899 15.3172 29.5129C15.2084 29.3007 15.2029 29.2409 15.2029 27.0924C15.2029 24.9438 15.2084 24.884 15.3172 24.6719C15.4477 24.4271 15.5619 24.3183 15.8013 24.1932C16.0297 24.0735 16.492 24.079 16.7423 24.2041ZM34.1481 24.2041C34.3765 24.3237 34.4853 24.4325 34.6267 24.6991C34.7247 24.8785 34.7301 25.0417 34.7301 27.0924C34.7301 29.2409 34.7247 29.3007 34.6159 29.5129C34.4092 29.899 34.0991 30.084 33.6694 30.084C33.2397 30.084 32.9297 29.899 32.723 29.5129C32.6142 29.3007 32.6088 29.2409 32.6088 27.0924C32.6088 24.9438 32.6142 24.884 32.723 24.6719C32.8535 24.4271 32.9678 24.3183 33.2071 24.1932C33.4355 24.0735 33.8979 24.079 34.1481 24.2041ZM25.4452 34.6476C25.8096 34.8325 26 35.1534 26 35.5777C26 36.1815 25.5703 36.6112 24.9665 36.6112C24.3627 36.6112 23.933 36.1815 23.933 35.5777C23.933 34.9739 24.3519 34.5497 24.9556 34.5442C25.1351 34.5442 25.3201 34.5823 25.4452 34.6476Z" fill="#E3F5EE"/>
</g>
</g>
</svg>
