<svg width="20" height="14" viewBox="0 0 20 14" fill="none" xmlns="http://www.w3.org/2000/svg">
<g id="icon" clip-path="url(#clip0_0_417)">
<path id="Vector" d="M19.5 11.67C19.5 12.08 19.38 12.46 19.19 12.79L13.19 6.2L19.12 1.1C19.36 1.45 19.5 1.88 19.5 2.33V11.67ZM10 7.39L18.26 0.29C17.92 0.11 17.54 0 17.12 0H2.87C2.46 0 2.08 0.11 1.74 0.29L10 7.39ZM12.3 6.96L10.39 8.61C10.28 8.7 10.14 8.75 10 8.75C9.86 8.75 9.72 8.7 9.61 8.61L7.7 6.96L1.63 13.64C1.99 13.87 2.41 14 2.87 14H17.12C17.58 14 18.01 13.87 18.37 13.64L12.3 6.96ZM0.87 1.09C0.64 1.45 0.5 1.88 0.5 2.33V11.66C0.5 12.07 0.62 12.45 0.8 12.78L6.8 6.18L0.87 1.09Z" fill="#97F312"/>
</g>
<defs>
<clipPath id="clip0_0_417">
<rect width="19" height="14" fill="white" transform="translate(0.5)"/>
</clipPath>
</defs>
</svg>
