<svg width="24" height="24" viewBox="0 0 24 24" fill="none" xmlns="http://www.w3.org/2000/svg">
<g id="icon">
<path id="search 1 (Traced)" fill-rule="evenodd" clip-rule="evenodd" d="M11.2966 3.01995C11.4747 3.03695 11.8275 3.09187 12.0806 3.142C12.3337 3.19213 12.7419 3.29955 12.9877 3.38068C13.2336 3.46182 13.6135 3.614 13.8319 3.71881C14.0504 3.82361 14.3744 3.99693 14.552 4.1039C14.7296 4.21087 15.0169 4.40589 15.1905 4.53726C15.3641 4.66863 15.6482 4.90845 15.8218 5.07024C15.9955 5.23199 16.2716 5.52669 16.4354 5.72509C16.5992 5.92348 16.838 6.24351 16.9661 6.43626C17.0942 6.62898 17.3117 7.01892 17.4495 7.30278C17.5872 7.58664 17.748 7.95825 17.8068 8.12856C17.8657 8.29888 17.9586 8.62314 18.0134 8.84913C18.0683 9.07512 18.1384 9.43898 18.1694 9.65771C18.2046 9.90631 18.2261 10.2876 18.2267 10.6747C18.2273 11.0154 18.2084 11.4412 18.1849 11.6209C18.1613 11.8007 18.1044 12.1258 18.0584 12.3434C18.0125 12.561 17.9135 12.9249 17.8386 13.152C17.7636 13.3791 17.5891 13.7972 17.4507 14.0811C17.3123 14.365 17.0981 14.7495 16.9747 14.9357C16.8512 15.1219 16.7502 15.2841 16.7502 15.2962C16.7502 15.3083 17.5317 16.1083 18.4868 17.0738C20.0141 18.6178 20.2349 18.8542 20.3189 19.0358C20.3977 19.2063 20.414 19.2871 20.4125 19.5003C20.4111 19.6904 20.3905 19.8037 20.3342 19.9304C20.2922 20.025 20.1871 20.1751 20.1007 20.264C20.0142 20.3528 19.8654 20.4603 19.7699 20.5028C19.6414 20.56 19.529 20.5805 19.3364 20.5816C19.1037 20.5831 19.0528 20.5707 18.8512 20.4633C18.6588 20.3608 18.3721 20.0904 16.8905 18.614L15.1552 16.8847L14.8194 17.1106C14.6347 17.2349 14.2535 17.4508 13.9723 17.5905C13.6911 17.7302 13.323 17.893 13.1543 17.9523C12.9855 18.0116 12.6711 18.1045 12.4555 18.1589C12.2399 18.2133 11.8871 18.2849 11.6716 18.3179C11.4 18.3596 11.0754 18.3781 10.6149 18.3781C10.1513 18.3781 9.83167 18.3597 9.55827 18.3175C9.34268 18.2841 9.04201 18.2276 8.89013 18.1919C8.73821 18.1562 8.46212 18.0779 8.2766 18.0179C8.09104 17.9579 7.78584 17.8425 7.59837 17.7613C7.4109 17.6802 7.1118 17.5328 6.93371 17.4337C6.75561 17.3347 6.47853 17.1634 6.31799 17.0529C6.15745 16.9425 5.88136 16.7301 5.70446 16.5809C5.52755 16.4317 5.26585 16.1858 5.12286 16.0345C4.97991 15.8833 4.76643 15.6374 4.64846 15.488C4.53053 15.3387 4.33709 15.0676 4.21858 14.8855C4.10006 14.7035 3.90483 14.3552 3.78471 14.1114C3.66459 13.8676 3.49768 13.4669 3.41376 13.2209C3.32988 12.9749 3.22936 12.6343 3.1904 12.4639C3.15147 12.2936 3.09268 11.9762 3.05982 11.7586C3.01823 11.4836 3 11.1583 3 10.6919C3 10.2256 3.01823 9.90032 3.05982 9.6253C3.09268 9.40767 3.15147 9.09026 3.1904 8.91994C3.22936 8.74962 3.32988 8.40899 3.41376 8.16297C3.49768 7.91696 3.66459 7.51625 3.78471 7.2725C3.90483 7.02872 4.10006 6.68035 4.21858 6.49833C4.33709 6.31628 4.53053 6.04515 4.64846 5.89585C4.76643 5.74652 4.97991 5.50061 5.12286 5.34935C5.26585 5.19806 5.52755 4.95222 5.70446 4.80299C5.88136 4.6538 6.15745 4.44137 6.31799 4.33096C6.47853 4.22051 6.75561 4.04916 6.93371 3.95013C7.1118 3.85111 7.4109 3.7037 7.59837 3.62257C7.78584 3.5414 8.09104 3.42593 8.2766 3.36596C8.46212 3.30598 8.73821 3.22771 8.89013 3.19206C9.04201 3.15641 9.33238 3.10243 9.53543 3.07212C9.73844 3.04177 10.1449 3.01066 10.4387 3.00299C10.7324 2.99532 11.1185 3.00292 11.2966 3.01995ZM9.89837 5.23626C9.70112 5.26278 9.40969 5.31794 9.25075 5.35888C9.09181 5.39983 8.82438 5.48685 8.65644 5.55229C8.4885 5.61773 8.22008 5.74105 8.05995 5.82631C7.89982 5.91161 7.63436 6.07832 7.47011 6.19678C7.30581 6.31525 7.06401 6.50924 6.93279 6.62784C6.80156 6.74644 6.58893 6.97002 6.46026 7.12472C6.33159 7.27942 6.13908 7.54154 6.03246 7.70714C5.92584 7.87278 5.77147 8.15148 5.68942 8.32648C5.60742 8.50151 5.49429 8.78403 5.43805 8.95435C5.38181 9.12467 5.30116 9.42659 5.25879 9.6253C5.19301 9.934 5.18183 10.0893 5.18183 10.6919C5.18183 11.2946 5.19301 11.4499 5.25879 11.7586C5.30116 11.9573 5.38181 12.2592 5.43805 12.4295C5.49429 12.5998 5.60789 12.8834 5.69048 13.0596C5.77307 13.2358 5.93852 13.53 6.05813 13.7133C6.17776 13.8967 6.38194 14.1701 6.5119 14.321C6.64183 14.4718 6.87044 14.7026 7.01987 14.8337C7.16934 14.9649 7.42965 15.1643 7.59837 15.2769C7.76709 15.3896 8.01209 15.5363 8.14281 15.6029C8.27353 15.6695 8.5156 15.7767 8.68078 15.8411C8.84592 15.9055 9.13776 15.9957 9.32932 16.0416C9.52084 16.0874 9.83862 16.1433 10.0355 16.1658C10.2468 16.1899 10.5749 16.1983 10.8365 16.1863C11.0802 16.1751 11.4095 16.1421 11.5683 16.113C11.7271 16.0839 11.9933 16.0205 12.1599 15.9721C12.3265 15.9237 12.6107 15.8183 12.7915 15.7379C12.9723 15.6574 13.2312 15.526 13.3668 15.4458C13.5025 15.3656 13.7326 15.2092 13.8781 15.098C14.0236 14.9869 14.2863 14.7514 14.4618 14.5746C14.6373 14.3978 14.8707 14.1329 14.9804 13.986C15.0901 13.8391 15.2437 13.6085 15.3218 13.4736C15.3998 13.3387 15.5099 13.126 15.5664 13.001C15.6229 12.8759 15.7201 12.6231 15.7824 12.4392C15.8447 12.2552 15.9302 11.9301 15.9724 11.7166C16.0353 11.3981 16.0491 11.2142 16.0491 10.6919C16.0491 10.1704 16.0353 9.98558 15.9727 9.66893C15.9307 9.45636 15.8492 9.13895 15.7915 8.96357C15.7339 8.7882 15.6047 8.47436 15.5045 8.2662C15.4042 8.05803 15.2409 7.76876 15.1415 7.62339C15.0421 7.47802 14.8499 7.22794 14.7145 7.06771C14.579 6.90744 14.3259 6.65581 14.1521 6.50855C13.9782 6.36128 13.7209 6.16471 13.5803 6.07171C13.4397 5.9787 13.17 5.8271 12.981 5.73479C12.792 5.64247 12.4969 5.52057 12.3251 5.46393C12.1534 5.4073 11.894 5.33666 11.7485 5.30696C11.6031 5.2773 11.3844 5.24004 11.2625 5.22421C11.1407 5.20839 10.8646 5.19376 10.649 5.19173C10.4334 5.1897 10.0956 5.20973 9.89837 5.23626Z" fill="#858883"/>
</g>
</svg>
