<svg width="25" height="24" viewBox="0 0 25 24" fill="none" xmlns="http://www.w3.org/2000/svg">
<g id="icon" clip-path="url(#clip0_424_39313)">
<g id="Black">
<g id="Black_2">
<path id="Vector" d="M1.90155 0.109137C1.37074 0.432001 1.36527 1.31303 1.89061 1.6359C2.00005 1.70156 2.21894 1.74534 2.54728 1.76723C3.28603 1.82195 3.77853 2.1284 4.0029 2.66468C4.04667 2.76318 4.47351 5.59234 4.95507 8.95777C5.43663 12.3232 5.85799 15.2126 5.89082 15.3767C6.05499 16.1921 6.646 16.8488 7.46136 17.1224C7.77328 17.2318 7.93745 17.2318 13.3057 17.2373C17.8586 17.2428 18.8765 17.2263 19.1008 17.1662C20.1515 16.8707 21.0052 15.9841 21.2296 14.9389C21.2733 14.7419 21.5743 12.9306 21.9026 10.9168C22.5921 6.63207 22.614 6.35845 22.324 5.74009C22.1161 5.30778 21.826 4.9685 21.4539 4.73319C20.9012 4.38297 21.4758 4.40486 13.4644 4.3775L6.13708 4.35013L5.98385 3.36513C5.90177 2.82885 5.79232 2.27068 5.74855 2.13387C5.51871 1.4389 4.83468 0.656363 4.17801 0.3335C3.66362 0.0817757 3.30792 -0.000307083 2.65672 -0.000307083C2.18064 -0.000307083 2.0493 0.0161095 1.90155 0.109137ZM15.9269 8.53094C16.1294 8.64585 16.3374 8.99608 16.3374 9.23686C16.3374 9.33536 16.2881 9.505 16.2334 9.61992C16.0966 9.88258 12.9117 13.051 12.7093 13.1276C12.4958 13.2097 12.2003 13.2042 12.0252 13.1112C11.9431 13.0674 11.4671 12.6187 10.9691 12.1098C10.2741 11.4148 10.0497 11.1467 10.0169 11.0099C9.89104 10.4134 10.4109 9.87164 11.0074 9.98109C11.1661 10.0139 11.3302 10.1398 11.7899 10.5885L12.37 11.1576L13.6888 9.84428C15.0623 8.47074 15.2374 8.33941 15.5986 8.40508C15.6916 8.42149 15.8339 8.48169 15.9269 8.53094Z" fill="#040A09"/>
<path id="Vector_2" d="M6.27138 19.1123C5.84015 19.2751 5.45353 19.6156 5.21561 20.0523C5.02974 20.3853 5 20.5259 5 20.9996C5 21.4733 5.02974 21.6139 5.21561 21.947C5.86989 23.1386 7.47584 23.3606 8.44238 22.3984C9.18587 21.6583 9.18587 20.3409 8.44238 19.6008C7.89963 19.0531 6.98513 18.8533 6.27138 19.1123Z" fill="#040A09"/>
<path id="Vector_3" d="M19.2714 19.1123C18.8401 19.2751 18.4535 19.6156 18.2156 20.0523C18.0297 20.3853 18 20.5259 18 20.9996C18 21.4733 18.0297 21.6139 18.2156 21.947C18.8699 23.1386 20.4758 23.3606 21.4424 22.3984C22.1859 21.6583 22.1859 20.3409 21.4424 19.6008C20.8996 19.0531 19.9851 18.8533 19.2714 19.1123Z" fill="#040A09"/>
</g>
</g>
</g>
<defs>
<clipPath id="clip0_424_39313">
<rect width="24" height="24" fill="white" transform="translate(0.5)"/>
</clipPath>
</defs>
</svg>
