<svg width="562" height="552" viewBox="0 0 562 552" fill="none" xmlns="http://www.w3.org/2000/svg">
<g clip-path="url(#clip0_11_11)">
<ellipse cx="281" cy="276" rx="280.687" ry="275.324" fill="#003399"/>
<path d="M281 66L271.73 94.5317L285.995 99.167L281 66Z" fill="#FFCC00"/>
<path d="M281 66L290.271 94.5317L276.005 99.167L281 66Z" fill="#FFCC00"/>
<path d="M309.532 86.7295H279.532V101.729L309.532 86.7295Z" fill="#FFCC00"/>
<path d="M309.532 86.7295L285.261 104.363L276.444 92.2278L309.532 86.7295Z" fill="#FFCC00"/>
<path d="M298.634 120.271L289.363 91.7388L275.097 96.3741L298.634 120.271Z" fill="#FFCC00"/>
<path d="M298.634 120.271L274.363 102.637L283.18 90.5017L298.634 120.271Z" fill="#FFCC00"/>
<path d="M252.468 86.7295H282.468V101.729L252.468 86.7295Z" fill="#FFCC00"/>
<path d="M252.468 86.7295L276.739 104.363L285.556 92.2278L252.468 86.7295Z" fill="#FFCC00"/>
<path d="M263.366 120.271L272.637 91.7388L286.903 96.3741L263.366 120.271Z" fill="#FFCC00"/>
<path d="M263.366 120.271L287.637 102.637L278.82 90.5017L263.366 120.271Z" fill="#FFCC00"/>
<path d="M281 426L271.73 454.532L285.995 459.167L281 426Z" fill="#FFCC00"/>
<path d="M281 426L290.271 454.532L276.005 459.167L281 426Z" fill="#FFCC00"/>
<path d="M309.532 446.729H279.532V461.729L309.532 446.729Z" fill="#FFCC00"/>
<path d="M309.532 446.729L285.261 464.363L276.444 452.228L309.532 446.729Z" fill="#FFCC00"/>
<path d="M298.634 480.271L289.363 451.739L275.097 456.374L298.634 480.271Z" fill="#FFCC00"/>
<path d="M298.634 480.271L274.363 462.637L283.18 450.502L298.634 480.271Z" fill="#FFCC00"/>
<path d="M252.468 446.729H282.468V461.729L252.468 446.729Z" fill="#FFCC00"/>
<path d="M252.468 446.729L276.739 464.363L285.556 452.228L252.468 446.729Z" fill="#FFCC00"/>
<path d="M263.366 480.271L272.637 451.739L286.903 456.374L263.366 480.271Z" fill="#FFCC00"/>
<path d="M263.366 480.271L287.637 462.637L278.82 450.502L263.366 480.271Z" fill="#FFCC00"/>
<path d="M101 246L91.7296 274.532L105.995 279.167L101 246Z" fill="#FFCC00"/>
<path d="M101 246L110.271 274.532L96.0047 279.167L101 246Z" fill="#FFCC00"/>
<path d="M129.532 266.729H99.5317V281.729L129.532 266.729Z" fill="#FFCC00"/>
<path d="M129.532 266.729L105.261 284.363L96.4444 272.228L129.532 266.729Z" fill="#FFCC00"/>
<path d="M118.634 300.271L109.363 271.739L95.0972 276.374L118.634 300.271Z" fill="#FFCC00"/>
<path d="M118.634 300.271L94.3631 282.637L103.18 270.502L118.634 300.271Z" fill="#FFCC00"/>
<path d="M72.4683 266.729H102.468V281.729L72.4683 266.729Z" fill="#FFCC00"/>
<path d="M72.4683 266.729L96.7388 284.363L105.556 272.228L72.4683 266.729Z" fill="#FFCC00"/>
<path d="M83.3665 300.271L92.637 271.739L106.903 276.374L83.3665 300.271Z" fill="#FFCC00"/>
<path d="M83.3665 300.271L107.637 282.637L98.8202 270.502L83.3665 300.271Z" fill="#FFCC00"/>
<path d="M173.366 144.386L197.637 126.752L188.82 114.617L173.366 144.386Z" fill="#FFCC00"/>
<path d="M173.366 144.386L182.637 115.854L196.903 120.489L173.366 144.386Z" fill="#FFCC00"/>
<path d="M162.468 110.845L186.739 128.478L195.556 116.343L162.468 110.845Z" fill="#FFCC00"/>
<path d="M162.468 110.845H192.468V125.845L162.468 110.845Z" fill="#FFCC00"/>
<path d="M191 90.1154L181.73 118.647L195.995 123.282L191 90.1154Z" fill="#FFCC00"/>
<path d="M191 90.1154L200.271 118.647L186.005 123.282L191 90.1154Z" fill="#FFCC00"/>
<path d="M208.634 144.386L184.363 126.752L193.18 114.617L208.634 144.386Z" fill="#FFCC00"/>
<path d="M208.634 144.386L199.363 115.854L185.097 120.49L208.634 144.386Z" fill="#FFCC00"/>
<path d="M219.532 110.845L195.261 128.478L186.444 116.343L219.532 110.845Z" fill="#FFCC00"/>
<path d="M219.532 110.845H189.532V125.845L219.532 110.845Z" fill="#FFCC00"/>
<path d="M142.749 210.271L133.478 181.739L119.213 186.374L142.749 210.271Z" fill="#FFCC00"/>
<path d="M142.749 210.271L118.478 192.637L127.295 180.502L142.749 210.271Z" fill="#FFCC00"/>
<path d="M107.482 210.271L131.752 192.637L122.936 180.502L107.482 210.271Z" fill="#FFCC00"/>
<path d="M107.482 210.271L116.752 181.739L131.018 186.374L107.482 210.271Z" fill="#FFCC00"/>
<path d="M96.5837 176.729L120.854 194.363L129.671 182.228L96.5837 176.729Z" fill="#FFCC00"/>
<path d="M96.5837 176.729H126.584V191.729L96.5837 176.729Z" fill="#FFCC00"/>
<path d="M153.647 176.729L129.377 194.363L120.56 182.228L153.647 176.729Z" fill="#FFCC00"/>
<path d="M153.647 176.729H123.647V191.729L153.647 176.729Z" fill="#FFCC00"/>
<path d="M125.115 156L134.386 184.532L120.12 189.167L125.115 156Z" fill="#FFCC00"/>
<path d="M125.115 156L115.845 184.532L130.111 189.167L125.115 156Z" fill="#FFCC00"/>
<path d="M153.647 356.729H123.647V371.729L153.647 356.729Z" fill="#FFCC00"/>
<path d="M153.647 356.729L129.377 374.363L120.56 362.228L153.647 356.729Z" fill="#FFCC00"/>
<path d="M142.749 390.271L133.478 361.739L119.213 366.374L142.749 390.271Z" fill="#FFCC00"/>
<path d="M142.749 390.271L118.478 372.637L127.295 360.502L142.749 390.271Z" fill="#FFCC00"/>
<path d="M107.482 390.27L131.752 372.637L122.936 360.502L107.482 390.27Z" fill="#FFCC00"/>
<path d="M107.482 390.27L116.752 361.739L131.018 366.374L107.482 390.27Z" fill="#FFCC00"/>
<path d="M125.115 336L134.386 364.532L120.12 369.167L125.115 336Z" fill="#FFCC00"/>
<path d="M125.115 336L115.845 364.532L130.111 369.167L125.115 336Z" fill="#FFCC00"/>
<path d="M96.5837 356.729H126.584V371.729L96.5837 356.729Z" fill="#FFCC00"/>
<path d="M96.5837 356.729L120.854 374.363L129.671 362.228L96.5837 356.729Z" fill="#FFCC00"/>
<path d="M219.532 422.614H189.532V437.614L219.532 422.614Z" fill="#FFCC00"/>
<path d="M219.532 422.614L195.261 440.248L186.444 428.112L219.532 422.614Z" fill="#FFCC00"/>
<path d="M208.634 456.155L199.363 427.623L185.097 432.259L208.634 456.155Z" fill="#FFCC00"/>
<path d="M208.634 456.155L184.363 438.522L193.18 426.386L208.634 456.155Z" fill="#FFCC00"/>
<path d="M173.366 456.155L197.637 438.522L188.82 426.386L173.366 456.155Z" fill="#FFCC00"/>
<path d="M173.366 456.155L182.637 427.623L196.903 432.259L173.366 456.155Z" fill="#FFCC00"/>
<path d="M191 401.885L200.271 430.416L186.005 435.052L191 401.885Z" fill="#FFCC00"/>
<path d="M191 401.885L181.729 430.416L195.995 435.052L191 401.885Z" fill="#FFCC00"/>
<path d="M162.468 422.614H192.468V437.614L162.468 422.614Z" fill="#FFCC00"/>
<path d="M162.468 422.614L186.739 440.248L195.556 428.112L162.468 422.614Z" fill="#FFCC00"/>
<path d="M461 246L470.271 274.532L456.005 279.167L461 246Z" fill="#FFCC00"/>
<path d="M461 246L451.729 274.532L465.995 279.167L461 246Z" fill="#FFCC00"/>
<path d="M432.468 266.729H462.468V281.729L432.468 266.729Z" fill="#FFCC00"/>
<path d="M432.468 266.729L456.739 284.363L465.556 272.228L432.468 266.729Z" fill="#FFCC00"/>
<path d="M443.366 300.271L452.637 271.739L466.903 276.374L443.366 300.271Z" fill="#FFCC00"/>
<path d="M443.366 300.271L467.637 282.637L458.82 270.502L443.366 300.271Z" fill="#FFCC00"/>
<path d="M489.532 266.729H459.532V281.729L489.532 266.729Z" fill="#FFCC00"/>
<path d="M489.532 266.729L465.261 284.363L456.444 272.228L489.532 266.729Z" fill="#FFCC00"/>
<path d="M478.634 300.271L469.363 271.739L455.097 276.374L478.634 300.271Z" fill="#FFCC00"/>
<path d="M478.634 300.271L454.363 282.637L463.18 270.502L478.634 300.271Z" fill="#FFCC00"/>
<path d="M388.634 144.386L364.363 126.752L373.18 114.617L388.634 144.386Z" fill="#FFCC00"/>
<path d="M388.634 144.386L379.363 115.854L365.097 120.489L388.634 144.386Z" fill="#FFCC00"/>
<path d="M399.532 110.845L375.261 128.478L366.444 116.343L399.532 110.845Z" fill="#FFCC00"/>
<path d="M399.532 110.845H369.532V125.845L399.532 110.845Z" fill="#FFCC00"/>
<path d="M371 90.1154L380.27 118.647L366.005 123.282L371 90.1154Z" fill="#FFCC00"/>
<path d="M371 90.1154L361.729 118.647L375.995 123.282L371 90.1154Z" fill="#FFCC00"/>
<path d="M353.366 144.386L377.637 126.752L368.82 114.617L353.366 144.386Z" fill="#FFCC00"/>
<path d="M353.366 144.386L362.637 115.854L376.903 120.49L353.366 144.386Z" fill="#FFCC00"/>
<path d="M342.468 110.845L366.739 128.478L375.556 116.343L342.468 110.845Z" fill="#FFCC00"/>
<path d="M342.468 110.845H372.468V125.845L342.468 110.845Z" fill="#FFCC00"/>
<path d="M419.251 210.271L428.521 181.739L442.787 186.374L419.251 210.271Z" fill="#FFCC00"/>
<path d="M419.251 210.271L443.521 192.637L434.705 180.502L419.251 210.271Z" fill="#FFCC00"/>
<path d="M454.518 210.271L430.248 192.637L439.064 180.502L454.518 210.271Z" fill="#FFCC00"/>
<path d="M454.518 210.271L445.248 181.739L430.982 186.374L454.518 210.271Z" fill="#FFCC00"/>
<path d="M465.416 176.729L441.146 194.363L432.329 182.228L465.416 176.729Z" fill="#FFCC00"/>
<path d="M465.416 176.729H435.416V191.729L465.416 176.729Z" fill="#FFCC00"/>
<path d="M408.353 176.729L432.623 194.363L441.44 182.228L408.353 176.729Z" fill="#FFCC00"/>
<path d="M408.353 176.729H438.353V191.729L408.353 176.729Z" fill="#FFCC00"/>
<path d="M436.885 156L427.614 184.532L441.88 189.167L436.885 156Z" fill="#FFCC00"/>
<path d="M436.885 156L446.155 184.532L431.889 189.167L436.885 156Z" fill="#FFCC00"/>
<path d="M408.353 356.729H438.353V371.729L408.353 356.729Z" fill="#FFCC00"/>
<path d="M408.353 356.729L432.623 374.363L441.44 362.228L408.353 356.729Z" fill="#FFCC00"/>
<path d="M419.251 390.271L428.521 361.739L442.787 366.374L419.251 390.271Z" fill="#FFCC00"/>
<path d="M419.251 390.271L443.521 372.637L434.705 360.502L419.251 390.271Z" fill="#FFCC00"/>
<path d="M454.518 390.27L430.248 372.637L439.064 360.502L454.518 390.27Z" fill="#FFCC00"/>
<path d="M454.518 390.27L445.248 361.739L430.982 366.374L454.518 390.27Z" fill="#FFCC00"/>
<path d="M436.885 336L427.614 364.532L441.88 369.167L436.885 336Z" fill="#FFCC00"/>
<path d="M436.885 336L446.155 364.532L431.889 369.167L436.885 336Z" fill="#FFCC00"/>
<path d="M465.416 356.729H435.416V371.729L465.416 356.729Z" fill="#FFCC00"/>
<path d="M465.416 356.729L441.146 374.363L432.329 362.228L465.416 356.729Z" fill="#FFCC00"/>
<path d="M342.468 422.614H372.468V437.614L342.468 422.614Z" fill="#FFCC00"/>
<path d="M342.468 422.614L366.739 440.248L375.556 428.112L342.468 422.614Z" fill="#FFCC00"/>
<path d="M353.366 456.155L362.637 427.623L376.903 432.259L353.366 456.155Z" fill="#FFCC00"/>
<path d="M353.366 456.155L377.637 438.522L368.82 426.386L353.366 456.155Z" fill="#FFCC00"/>
<path d="M388.634 456.155L364.363 438.522L373.18 426.386L388.634 456.155Z" fill="#FFCC00"/>
<path d="M388.634 456.155L379.363 427.623L365.097 432.259L388.634 456.155Z" fill="#FFCC00"/>
<path d="M371 401.885L361.729 430.416L375.995 435.052L371 401.885Z" fill="#FFCC00"/>
<path d="M371 401.885L380.271 430.416L366.005 435.052L371 401.885Z" fill="#FFCC00"/>
<path d="M399.532 422.614H369.532V437.614L399.532 422.614Z" fill="#FFCC00"/>
<path d="M399.532 422.614L375.261 440.248L366.444 428.112L399.532 422.614Z" fill="#FFCC00"/>
</g>
<defs>
<clipPath id="clip0_11_11">
<rect width="562" height="552" fill="white"/>
</clipPath>
</defs>
</svg>
