<svg width="24" height="24" viewBox="0 0 24 24" fill="none" xmlns="http://www.w3.org/2000/svg">
<path d="M6.08247 3.11444C4.66351 3.4835 3.48105 4.67138 3.11766 6.08415C2.96192 6.69539 2.96192 7.60648 3.11766 8.21196C3.48105 9.6305 4.67505 10.8241 6.09401 11.1874C6.70543 11.3431 7.61102 11.3431 8.21667 11.1874C9.69331 10.8011 10.8758 9.5959 11.2219 8.12546C11.343 7.59495 11.3315 6.63773 11.1988 6.10145C10.8296 4.65984 9.65293 3.47773 8.21667 3.11444C7.62832 2.96452 6.65928 2.96452 6.08247 3.11444Z" fill="#040A09"/>
<path d="M15.7608 3.11447C14.3418 3.48929 13.1709 4.6714 12.8017 6.10147C12.6517 6.69541 12.6517 7.61227 12.8075 8.21198C13.1709 9.64782 14.3533 10.8242 15.7954 11.1932C16.3837 11.3431 17.3066 11.3431 17.895 11.1932C19.3427 10.8184 20.4964 9.67088 20.8828 8.21198C21.0386 7.60651 21.0386 6.70118 20.8828 6.08994C20.5194 4.6714 19.3254 3.47775 17.9065 3.11447C17.3124 2.95878 16.3491 2.96454 15.7608 3.11447Z" fill="#040A09"/>
<path d="M6.08235 12.8021C4.65185 13.1769 3.48093 14.3532 3.11177 15.7891C2.9618 16.383 2.9618 17.2999 3.11754 17.8996C3.48093 19.3181 4.67493 20.5118 6.09388 20.8751C7.07446 21.1288 8.22232 20.9904 9.14521 20.5118C9.84316 20.1485 10.5238 19.445 10.8699 18.7299C11.0141 18.4359 11.1698 18.0264 11.216 17.8189C11.3429 17.2826 11.3371 16.3254 11.1987 15.7891C10.8295 14.3475 9.65281 13.1654 8.21655 12.8021C7.6282 12.6521 6.65916 12.6521 6.08235 12.8021Z" fill="#040A09"/>
<path d="M15.7723 12.8021C14.3418 13.1769 13.1709 14.3532 12.8017 15.7891C12.6517 16.383 12.6517 17.2999 12.8075 17.8996C13.1709 19.3181 14.3649 20.5118 15.7838 20.8751C16.7644 21.1288 17.9123 20.9904 18.8352 20.5118C19.5331 20.1485 20.2137 19.445 20.5598 18.7299C20.704 18.4359 20.8598 18.0264 20.9059 17.8189C21.0328 17.2826 21.027 16.3254 20.8886 15.7891C20.5194 14.3475 19.3427 13.1654 17.9065 12.8021C17.3181 12.6521 16.3491 12.6521 15.7723 12.8021Z" fill="#040A09"/>
</svg>
