<svg width="24" height="24" viewBox="0 0 24 24" fill="none" xmlns="http://www.w3.org/2000/svg">
<g id="calendar (icon)">
<g id="Vector">
<path d="M6.65274 5.60747H6.07206C5.61253 5.60747 5.43708 5.62242 5.22402 5.68223C4.72272 5.82055 4.36762 6.09718 4.1295 6.54204C4.04425 6.70201 4 6.87701 4 7.05424V18.5314C4 18.7229 4.04857 18.9118 4.14204 19.084C4.38851 19.5326 4.85222 19.8541 5.39112 19.9588C5.54987 19.9887 7.42976 19.9999 12.0125 19.9999C18.9723 19.9999 18.6256 20.0111 19.1018 19.7943C19.3901 19.6635 19.6992 19.3719 19.8621 19.0765C19.9529 18.9093 20 18.7257 20 18.5398V7.05762C20 6.8781 19.9558 6.70079 19.8705 6.5383C19.6407 6.10466 19.2773 5.82055 18.776 5.68223C18.5629 5.62242 18.3875 5.60747 17.9279 5.60747H17.3473V4H15.5509V5.60747H8.44909V4H6.65274V5.60747ZM18.2245 8.78502H5.77546V7.21493H18.2245V8.78502ZM18.2245 18.3551H5.77546V10.4299H18.2245V18.3551Z" fill="#8FFE35"/>
<path d="M7.53003 12.8224H9.32637V11.1775H7.53003V12.8224Z" fill="#8FFE35"/>
<path d="M11.0809 12.8224H12.9191V11.1775H11.0809V12.8224Z" fill="#8FFE35"/>
<path d="M14.6736 12.8224H16.47V11.1775H14.6736V12.8224Z" fill="#8FFE35"/>
</g>
</g>
</svg>
