<svg width="24" height="28" viewBox="0 0 24 28" fill="none" xmlns="http://www.w3.org/2000/svg">
<g id="verified">
<path id="Shape" fill-rule="evenodd" clip-rule="evenodd" d="M22.6277 4.5988L12.0598 0.165325C11.795 0.0542938 11.4974 0.0542393 11.2328 0.165325L0.664861 4.5988C0.262364 4.76769 0 5.16474 0 5.60511V10.9946C0 18.4156 4.439 25.0909 11.2387 27.8953C11.4999 28.003 11.7925 28.003 12.0538 27.8953C18.8534 25.091 23.2925 18.4156 23.2925 10.9946V5.60511C23.2925 5.16474 23.0302 4.76769 22.6277 4.5988ZM21.1353 10.9946C21.1353 17.3031 17.4689 23.1106 11.6458 25.7029C5.97827 23.1799 2.15625 17.4741 2.15625 10.9946V6.33248L11.6458 2.35136L21.1353 6.33248V10.9946ZM15.0903 9.9832L10.4553 14.6665L8.20416 12.3918C7.78306 11.9663 7.1003 11.9664 6.67915 12.3918C6.25799 12.8173 6.25799 13.5072 6.67915 13.9328L9.69283 16.9779C10.1139 17.4034 10.7966 17.4035 11.2178 16.9779L16.6153 11.5241C17.0364 11.0986 17.0365 10.4088 16.6153 9.9832C16.1942 9.55766 15.5114 9.55771 15.0903 9.9832Z" fill="white"/>
</g>
</svg>
