<svg width="40" height="40" viewBox="0 0 40 40" fill="none" xmlns="http://www.w3.org/2000/svg">
<g id="arrow">
<path id="Vector" d="M19.0087 11.0675C18.9718 11.1069 18.9454 11.1856 18.9454 11.2475C18.9454 11.315 19.6682 12.6031 20.5545 14.1219C21.8997 16.4281 22.1424 16.8837 22.0686 16.9175C22.0211 16.94 18.8716 17.5812 15.0731 18.3406C11.28 19.1056 8.14104 19.7413 8.10411 19.7525C7.9353 19.8256 7.98278 20.1856 8.16742 20.2475C8.22018 20.2587 11.3855 20.9 15.1998 21.665C19.014 22.43 22.1424 23.06 22.153 23.0656C22.1582 23.0712 21.4302 24.3481 20.5281 25.895C19.6312 27.4475 18.8927 28.7525 18.8927 28.7919C18.8927 28.8987 19.0035 29 19.1195 29C19.2725 29 31.9075 20.2756 31.9708 20.1294C32.0077 20.0506 32.0077 19.9494 31.9814 19.8706C31.9497 19.7806 30.003 18.4081 25.5979 15.3706C22.1108 12.9688 19.2145 11 19.167 11C19.1142 11 19.0457 11.0281 19.0087 11.0675Z" fill="#97F312"/>
</g>
</svg>
