<svg width="32" height="32" viewBox="0 0 32 32" fill="none" xmlns="http://www.w3.org/2000/svg">
<g id="twitter">
<g id="Facebook" filter="url(#filter0_b_0_492)">
<path fill-rule="evenodd" clip-rule="evenodd" d="M0 16C0 7.16344 7.16344 0 16 0C24.8366 0 32 7.16344 32 16C32 24.8366 24.8366 32 16 32C7.16344 32 0 24.8366 0 16Z" fill="#0C1716"/>
</g>
<path id="Vector" d="M25 11.6574C24.3379 11.9384 23.6257 12.1284 22.8788 12.2133C23.6414 11.776 24.2267 11.0841 24.5029 10.2583C23.7893 10.6634 22.9986 10.9573 22.1578 11.1157C21.4842 10.4291 20.5244 10 19.4616 10C17.4225 10 15.7687 11.5828 15.7687 13.5343C15.7687 13.8114 15.8014 14.081 15.8648 14.3398C12.7956 14.1925 10.0744 12.7855 8.25282 10.6466C7.935 11.1684 7.75269 11.776 7.75269 12.4236C7.75269 13.6495 8.40512 14.7318 9.39548 15.3654C8.79042 15.3472 8.2206 15.1883 7.72294 14.9229C7.72267 14.9379 7.72267 14.9529 7.72267 14.9677C7.72267 16.6801 8.99614 18.1085 10.6852 18.4329C10.3757 18.5141 10.0487 18.5571 9.71248 18.5571C9.47397 18.5571 9.24291 18.5352 9.01763 18.4941C9.48747 19.8979 10.851 20.9198 12.4674 20.9485C11.2032 21.8966 9.61113 22.4615 7.88047 22.4615C7.58303 22.4615 7.28835 22.4449 7 22.4119C8.63343 23.4151 10.575 24 12.6604 24C19.453 24 23.1677 18.6146 23.1677 13.9437C23.1677 13.7905 23.1641 13.6379 23.157 13.4866C23.8791 12.9885 24.5051 12.3661 25 11.6574Z" fill="#97F312"/>
</g>
<defs>
<filter id="filter0_b_0_492" x="-20" y="-20" width="72" height="72" filterUnits="userSpaceOnUse" color-interpolation-filters="sRGB">
<feFlood flood-opacity="0" result="BackgroundImageFix"/>
<feGaussianBlur in="BackgroundImageFix" stdDeviation="10"/>
<feComposite in2="SourceAlpha" operator="in" result="effect1_backgroundBlur_0_492"/>
<feBlend mode="normal" in="SourceGraphic" in2="effect1_backgroundBlur_0_492" result="shape"/>
</filter>
</defs>
</svg>
