<svg width="14" height="19" viewBox="0 0 14 19" fill="none" xmlns="http://www.w3.org/2000/svg">
<path d="M6.3569 0.036274C3.09421 0.400034 0.5585 2.79787 0.0610966 5.99005C-0.025862 6.53568 -0.0189053 7.53417 0.07501 8.09094C0.318494 9.57196 0.97938 10.641 1.99158 11.194C2.22115 11.3165 2.28028 11.3351 2.49942 11.3351C2.92725 11.3351 3.04552 11.1792 3.2403 10.3329C3.30291 10.0656 3.35161 9.76126 3.35161 9.65362C3.35161 9.43462 3.32031 9.37523 2.98638 8.863C2.64203 8.33963 2.53072 7.86823 2.55507 7.04792C2.59681 5.78218 3.03508 4.69833 3.86641 3.81863C4.24207 3.41775 4.5586 3.1839 5.06991 2.92408C6.05081 2.42298 7.2891 2.30791 8.4126 2.61228C9.68568 2.95748 10.5205 3.82234 10.8509 5.13632C10.9379 5.48524 10.9448 5.55576 10.9448 6.30555C10.9448 7.18154 10.8996 7.60098 10.7187 8.38417C10.4544 9.54598 9.95699 10.4888 9.33436 11.0196C9.06653 11.246 8.89957 11.3425 8.60043 11.4316C7.67867 11.7137 6.82648 11.1235 6.823 10.203C6.823 9.92458 6.88909 9.63877 7.22649 8.43985C7.64737 6.95883 7.75172 6.41691 7.71693 5.86384C7.67867 5.30336 7.51867 4.88392 7.21605 4.57213C6.89952 4.25291 6.56212 4.11557 6.07168 4.11557C5.09774 4.11928 4.29424 4.90248 3.97423 6.17564C3.91858 6.38721 3.89423 6.62848 3.88032 7.01451C3.85945 7.61211 3.90815 8.04269 4.06467 8.60688L4.15163 8.92239L3.52205 11.7619C3.17769 13.3246 2.86464 14.7834 2.82638 15.0098C2.63159 16.1901 2.57594 17.5784 2.70116 18.1686C2.82638 18.7587 3.02465 19 3.38292 19C3.53944 19 3.60901 18.9777 3.74118 18.8924C4.09598 18.6511 4.4299 18.1648 4.77425 17.3928C5.1847 16.4648 5.38644 15.819 5.76558 14.2451C5.91515 13.6253 6.04037 13.1093 6.04733 13.1056C6.05081 13.0982 6.13776 13.1576 6.24211 13.2392C6.50995 13.4545 6.73952 13.5919 7.05257 13.7218C7.58128 13.9408 7.72737 13.9705 8.39173 13.9668C9.27871 13.9668 9.8422 13.8294 10.6005 13.4285C12.4614 12.4449 13.6649 10.3329 13.9571 7.53045C14.0197 6.93656 14.0127 5.87127 13.9432 5.45183C13.5988 3.38805 12.4475 1.75485 10.6596 0.789776C9.92916 0.392609 9.28219 0.184748 8.40217 0.0511208C7.99868 -0.00826836 6.84387 -0.0194035 6.3569 0.036274Z" fill="#97F312"/>
</svg>
