<svg width="21.4495514px" height="20px" viewBox="0 0 21.4495514 20" version="1.1" xmlns="http://www.w3.org/2000/svg" xmlns:xlink="http://www.w3.org/1999/xlink">
    <g id="Page-1" stroke="none" stroke-width="1" fill="none" fill-rule="evenodd" stroke-linecap="square">
        <g id="Group" fill="#C0B9B9" stroke="#97F312">
            <path d="M17.3916001,2.27090762 C15.396151,3.73208092 13.7500151,5.01251623 12.4531923,6.11221353 C11.1563696,7.21191084 9.95293605,8.30221495 8.84289183,9.38312584 C9.76807211,10.3466767 10.9715056,11.5686585 12.4531923,13.0490712 C13.934879,14.5294838 15.581015,16.0253694 17.3916001,17.5367279 C20.2050255,19.8072815 21.3791561,20.5081505 20.9139919,19.639335 C20.4488277,18.7705195 19.7315391,17.6821339 18.7621262,16.3741781 L13.5319498,9.38312584 L18.7621262,3.59301449 C21.3535419,0.749344036 22.0708305,-0.406371568 20.9139919,0.125867682 C19.7571533,0.658106932 18.5830227,1.37312024 17.3916001,2.27090762 Z" id="Line"></path>
            <path d="M8.54870828,2.27090762 C6.55325919,3.73208092 4.90712326,5.01251623 3.61030049,6.11221353 C2.31347772,7.21191084 1.11004422,8.30221495 0,9.38312584 C0.925180274,10.3466767 2.12861377,11.5686585 3.61030049,13.0490712 C5.09198721,14.5294838 6.73812314,16.0253694 8.54870828,17.5367279 C11.3621337,19.8072815 12.5362642,20.5081505 12.0711,19.639335 C11.6059358,18.7705195 10.8886473,17.6821339 9.91923441,16.3741781 L4.68905798,9.38312584 L9.91923441,3.59301449 C12.5106501,0.749344036 13.2279386,-0.406371568 12.0711,0.125867682 C10.9142614,0.658106932 9.74013084,1.37312024 8.54870828,2.27090762 Z" id="Line-Copy"></path>
        </g>
    </g>
</svg>